<?xml version="1.0" standalone="no"?>
<!DOCTYPE svg PUBLIC "-//W3C//DTD SVG 20010904//EN"
 "http://www.w3.org/TR/2001/REC-SVG-20010904/DTD/svg10.dtd">
<svg version="1.0" xmlns="http://www.w3.org/2000/svg"
 width="1920.000000pt" height="1080.000000pt" viewBox="0 0 1920.000000 1080.000000"
 preserveAspectRatio="xMidYMid meet">
<metadata>
Created by potrace 1.16, written by Peter Selinger 2001-2019
</metadata>
<g transform="translate(0.000000,1080.000000) scale(0.100000,-0.100000)"
fill="#000000" stroke="none">
<path d="M2 5400 l-2 -5400 9570 0 9570 0 3 253 2 252 3 -252 2 -253 25 0 25
0 0 5400 0 5400 -9598 0 -9598 0 -2 -5400z m3933 3407 c196 -56 354 -176 455
-346 126 -211 133 -475 19 -707 -68 -140 -218 -281 -365 -344 -71 -31 -208
-60 -287 -60 -128 0 -275 41 -395 111 -73 43 -207 178 -251 253 -173 292 -130
656 104 892 116 117 244 186 397 214 70 12 260 4 323 -13z m3835 -42 c216 -45
434 -216 538 -420 46 -92 64 -167 69 -296 10 -237 -42 -389 -200 -584 -64 -80
-121 -177 -146 -252 -26 -78 -27 -103 -3 -103 27 0 106 -54 136 -93 114 -149
33 -369 -151 -407 -33 -7 -193 -10 -450 -8 -439 3 -432 2 -508 69 -99 87 -112
235 -32 341 33 43 116 97 150 98 16 0 18 5 12 43 -4 23 -20 74 -36 112 -28 68
-43 90 -160 232 -67 81 -120 183 -151 290 -29 98 -31 293 -6 388 60 222 183
389 365 496 70 42 198 92 263 102 64 11 245 6 310 -8z m-3075 -1529 c94 -30
156 -70 229 -146 63 -66 120 -174 136 -259 5 -29 10 -183 10 -341 l0 -287
-167 -6 c-185 -5 -223 -14 -299 -69 -55 -39 -87 -91 -108 -173 -13 -48 -16
-127 -16 -432 0 -205 -3 -373 -7 -373 -5 0 -30 7 -57 15 -58 18 -174 19 -248
4 -190 -40 -352 -204 -391 -399 -13 -60 -16 -65 -45 -71 -40 -8 -78 -33 -94
-61 -10 -18 -14 -221 -18 -953 l-5 -930 -28 -57 c-30 -61 -74 -105 -140 -140
-60 -32 -194 -33 -254 0 -58 31 -111 87 -142 152 l-26 55 -5 1565 c-3 861 -6
1566 -8 1567 -12 12 -65 33 -82 33 -12 0 -35 -13 -51 -29 l-29 -29 0 -434 0
-433 -24 -50 c-13 -27 -32 -58 -42 -67 -49 -44 -156 -62 -221 -37 -15 5 -45
27 -65 46 -72 70 -69 26 -66 1029 l3 899 26 66 c70 179 180 288 349 346 l65
22 872 1 872 0 76 -24z m1515 -510 c74 -37 123 -87 155 -158 50 -112 43 -230
-21 -326 -19 -29 -52 -65 -74 -80 -22 -15 -39 -30 -40 -34 0 -4 30 -36 66 -72
l65 -66 480 0 c500 0 506 0 541 -44 16 -19 18 -62 18 -507 l0 -486 63 -67 c34
-36 67 -66 72 -65 6 0 24 19 40 42 59 81 192 137 294 122 68 -9 165 -59 206
-107 63 -74 80 -122 80 -223 0 -111 -25 -173 -95 -239 -81 -76 -120 -91 -235
-91 -89 0 -105 3 -151 27 -29 15 -74 52 -101 83 l-50 56 -67 -74 -66 -74 0
-486 0 -487 -29 -32 -29 -33 -494 -3 -494 -3 -64 -64 -63 -64 56 -51 c82 -75
112 -141 112 -250 0 -71 -4 -94 -26 -140 -66 -138 -209 -213 -363 -189 -73 12
-119 36 -175 90 -92 89 -125 233 -81 354 17 46 38 75 87 124 l65 64 -68 61
-68 61 -494 5 -494 5 -29 33 -29 32 0 489 0 489 -67 72 -68 71 -70 -69 c-88
-86 -140 -107 -254 -100 -253 15 -394 294 -259 510 61 98 160 151 280 152 65
0 85 -5 141 -32 38 -19 83 -52 111 -82 44 -47 48 -49 69 -35 13 8 44 39 70 69
l47 55 0 486 0 487 31 29 31 29 494 0 494 0 73 70 c66 64 70 71 53 81 -87 52
-146 151 -154 258 -8 118 36 218 130 294 90 73 240 87 348 33z m7086 -156 c74
-19 236 -90 277 -122 18 -13 16 -20 -43 -125 l-61 -111 -51 34 c-130 85 -342
127 -455 90 -75 -25 -106 -63 -111 -135 -4 -50 -1 -65 17 -90 28 -40 123 -84
247 -117 392 -101 511 -195 522 -411 11 -198 -65 -331 -233 -409 -155 -71
-432 -72 -640 -1 -77 26 -207 88 -244 116 l-23 17 58 117 c32 64 62 117 65
117 4 0 29 -15 57 -34 120 -81 283 -130 432 -131 166 0 230 41 230 149 0 90
-62 132 -304 206 -276 84 -324 107 -399 190 -63 70 -80 127 -75 248 3 83 8
107 35 164 71 151 200 230 428 262 57 8 191 -4 271 -24z m-1216 -185 l0 -174
113 -3 112 -3 3 -102 3 -102 -113 -3 -113 -3 0 -288 0 -289 28 -24 c34 -29
110 -33 177 -9 24 8 44 14 45 13 8 -13 53 -203 49 -209 -12 -20 -174 -61 -260
-66 -150 -9 -240 32 -290 133 -17 36 -19 68 -22 392 l-3 352 -69 0 -70 0 0
105 0 105 70 0 70 0 0 168 c0 93 3 172 7 175 3 4 64 7 135 7 l128 0 0 -175z
m2112 3 l3 -173 113 -3 112 -3 0 -104 0 -105 -110 0 c-107 0 -110 -1 -116 -24
-3 -13 -4 -144 -2 -291 l3 -267 28 -24 c34 -29 110 -33 177 -9 24 8 44 14 46
13 7 -8 52 -203 48 -210 -3 -4 -42 -20 -87 -35 -69 -23 -100 -27 -197 -27
-126 -1 -166 12 -222 71 -61 64 -63 75 -66 456 l-3 347 -70 0 -70 0 3 103 3
102 68 3 67 3 0 168 c0 92 3 171 7 174 3 4 64 7 134 7 l129 0 2 -172z m-6262
129 c0 -26 -80 -125 -126 -155 -74 -50 -134 -65 -233 -60 -71 4 -96 10 -146
35 -76 39 -175 141 -175 180 0 10 71 13 340 13 277 0 340 -2 340 -13z m996
-321 c102 -47 155 -135 175 -286 5 -41 8 -232 7 -425 l-3 -350 -132 -3 -133
-3 0 298 c-1 415 -11 478 -90 530 -42 29 -127 31 -186 4 -51 -23 -116 -81
-146 -129 -22 -36 -23 -46 -28 -367 l-5 -330 -135 0 -135 0 0 535 0 535 123 3
122 3 0 -98 0 -98 44 50 c89 102 215 153 376 154 80 1 103 -3 146 -23z m1117
9 c183 -48 329 -187 381 -364 19 -64 31 -198 22 -235 l-6 -26 -410 0 -410 0 0
-27 c0 -47 44 -126 94 -170 57 -50 150 -79 223 -69 86 11 174 66 210 131 7 12
26 9 113 -17 58 -17 109 -34 113 -38 13 -11 -34 -79 -90 -132 -99 -92 -233
-140 -393 -141 -161 0 -286 46 -395 147 -109 101 -167 237 -168 396 -1 272
150 476 406 545 70 19 238 19 310 0z m5270 0 c183 -48 329 -187 381 -364 19
-64 31 -198 22 -235 l-6 -26 -410 0 -410 0 0 -28 c0 -44 47 -128 96 -171 55
-48 149 -77 221 -67 86 11 174 66 210 131 7 12 26 9 113 -16 58 -17 109 -34
113 -39 13 -12 -33 -78 -90 -132 -99 -92 -233 -140 -393 -141 -168 0 -297 50
-405 158 -106 106 -158 236 -158 390 0 269 153 471 408 540 68 19 237 19 308
0z m1420 -24 c77 -37 183 -131 221 -195 14 -24 38 -79 53 -122 24 -70 27 -93
27 -199 -1 -102 -5 -132 -27 -201 -63 -190 -197 -317 -366 -343 -152 -24 -323
40 -399 149 -15 22 -30 39 -34 40 -5 0 -8 -137 -8 -305 l0 -305 -135 0 -135 0
2 753 3 752 115 0 115 0 3 -88 3 -88 50 55 c96 105 176 137 334 133 101 -2
116 -5 178 -36z m-5886 -58 c33 -49 90 -132 126 -185 l66 -97 124 182 124 182
136 3 c75 1 137 -1 137 -5 0 -4 -84 -125 -185 -268 -102 -143 -185 -263 -185
-267 0 -4 83 -121 185 -261 102 -140 185 -260 185 -266 0 -8 -40 -11 -129 -11
l-129 0 -24 28 c-12 16 -72 98 -132 184 l-109 155 -68 -101 c-38 -55 -95 -137
-127 -181 l-57 -80 -129 -3 c-71 -1 -133 1 -136 5 -4 4 77 125 180 268 147
202 186 263 179 276 -4 9 -86 126 -180 259 -94 134 -173 249 -176 256 -4 11
20 14 129 14 l135 0 60 -87z m-6908 -1877 c102 -105 347 -155 499 -102 l42 15
0 -697 0 -697 -26 -55 c-45 -98 -116 -154 -218 -170 -147 -24 -289 64 -332
206 -12 39 -14 174 -14 791 0 408 4 743 8 743 4 0 23 -15 41 -34z"/>
<path d="M7514 8569 c-184 -17 -374 -150 -458 -321 -118 -240 -73 -496 123
-703 97 -102 167 -244 186 -377 l7 -48 59 0 59 0 0 280 0 280 -35 14 c-59 25
-58 104 2 127 22 8 32 6 52 -9 l26 -19 3 -332 2 -331 50 0 50 0 2 337 3 338
27 12 c35 18 71 3 87 -34 17 -42 0 -82 -39 -89 l-30 -6 0 -284 0 -284 60 0
c59 0 60 0 60 28 0 92 93 286 189 397 81 93 122 158 154 241 19 51 22 78 22
194 -1 114 -4 144 -23 194 -83 225 -288 384 -512 398 -30 2 -87 0 -126 -3z
m-136 -145 c12 -8 22 -22 22 -31 0 -23 -181 -192 -205 -193 -28 0 -45 19 -45
50 0 46 140 190 185 190 11 0 31 -7 43 -16z"/>
<path d="M9792 6012 c-87 -31 -159 -119 -177 -215 l-7 -37 276 0 276 0 0 23
c0 78 -68 175 -152 218 -59 30 -149 35 -216 11z"/>
<path d="M15070 6015 c-88 -28 -167 -122 -185 -218 l-7 -37 276 0 276 0 0 29
c0 74 -74 177 -155 215 -51 24 -148 30 -205 11z"/>
<path d="M16363 5971 c-62 -29 -101 -60 -134 -110 -28 -44 -29 -47 -29 -177
l0 -132 39 -59 c89 -132 238 -181 360 -119 54 28 119 113 141 183 54 175 -14
346 -164 414 -55 25 -157 25 -213 0z"/>
</g>
</svg>
