<?xml version="1.0" standalone="no"?>
<!DOCTYPE svg PUBLIC "-//W3C//DTD SVG 20010904//EN"
 "http://www.w3.org/TR/2001/REC-SVG-20010904/DTD/svg10.dtd">
<svg version="1.0" xmlns="http://www.w3.org/2000/svg"
 width="1920.000000pt" height="1080.000000pt" viewBox="0 0 1920.000000 1080.000000"
 preserveAspectRatio="xMidYMid meet">
<metadata>
Created by potrace 1.16, written by Peter Selinger 2001-2019
</metadata>
<g transform="translate(0.000000,1080.000000) scale(0.100000,-0.100000)"
fill="#000000" stroke="none">
<path d="M2 10153 l3 -648 2 642 3 643 9598 3 9597 2 -9602 3 -9603 2 2 -647z"/>
<path d="M4183 9550 c-345 -62 -585 -404 -522 -746 43 -237 211 -430 444 -510
70 -24 95 -28 200 -27 103 0 132 4 202 27 208 68 375 249 429 466 22 87 15
259 -14 350 -62 193 -224 355 -417 416 -90 29 -234 39 -322 24z"/>
<path d="M7580 9509 c-136 -20 -277 -95 -380 -200 -256 -263 -266 -655 -24
-944 82 -99 112 -145 134 -210 36 -103 36 -101 -18 -119 -84 -28 -152 -124
-152 -214 0 -43 31 -116 63 -150 12 -13 40 -34 62 -45 39 -21 50 -22 420 -22
370 0 381 1 420 22 82 44 125 114 125 205 0 91 -67 187 -142 204 -41 8 -44 25
-18 101 28 82 66 147 142 243 109 136 156 261 165 430 5 88 2 118 -16 184 -47
171 -151 317 -288 407 -155 101 -312 135 -493 108z m202 -180 c159 -34 307
-147 373 -286 98 -204 62 -419 -99 -603 -36 -41 -81 -104 -100 -140 -36 -70
-76 -187 -76 -226 0 -22 -4 -24 -55 -24 l-55 0 0 254 0 255 22 3 c12 2 29 15
37 29 13 24 13 29 -2 53 -19 28 -63 36 -85 14 -9 -9 -12 -90 -12 -305 l0 -293
-45 0 -45 0 0 287 c0 316 -1 323 -62 323 -58 0 -65 -89 -8 -108 l30 -11 0
-250 0 -251 -53 0 -54 0 -17 81 c-20 94 -80 217 -135 274 -107 113 -163 214
-181 329 -13 80 -1 187 29 266 90 235 350 380 593 329z"/>
<path d="M7431 9203 c-17 -9 -54 -40 -82 -71 -41 -45 -50 -60 -47 -86 5 -56
38 -47 128 36 63 57 80 78 78 97 -4 33 -37 43 -77 24z"/>
<path d="M3520 8169 c-118 -23 -252 -124 -312 -235 -59 -109 -58 -97 -58 -956
0 -868 -3 -827 63 -885 42 -37 88 -48 152 -38 58 8 118 63 134 120 7 26 11
172 11 413 l0 373 25 24 c39 40 96 32 120 -16 13 -24 15 -214 15 -1387 l0
-1359 30 -60 c48 -96 124 -143 230 -143 105 0 185 55 234 159 21 45 21 59 26
861 4 600 8 820 17 836 11 19 55 46 94 57 10 4 18 22 22 52 15 109 112 247
217 308 93 54 268 75 359 42 32 -11 43 -12 46 -2 3 7 6 172 7 367 3 342 4 356
25 395 29 55 79 100 138 126 42 19 73 23 204 27 l153 5 -4 266 c-5 294 -13
339 -80 444 -62 97 -184 182 -296 206 -64 13 -1502 14 -1572 0z"/>
<path d="M6270 7728 c-127 -29 -220 -149 -220 -282 0 -85 26 -143 92 -210 67
-67 68 -63 -25 -137 l-49 -39 -430 0 -430 0 -29 -29 -29 -29 0 -428 0 -428
-57 -58 c-32 -32 -60 -58 -63 -58 -3 0 -31 24 -62 54 -45 44 -69 59 -124 75
-59 19 -75 20 -128 10 -101 -18 -184 -83 -223 -176 -25 -62 -20 -173 11 -237
51 -104 144 -161 261 -160 88 1 146 27 210 95 25 27 50 49 54 49 5 0 34 -27
65 -61 l56 -60 0 -430 0 -431 29 -29 29 -29 251 0 251 0 0 855 0 855 473 -2
472 -3 3 -379 2 -379 53 75 c169 246 369 416 637 544 63 30 126 60 140 67 l25
13 3 299 c1 165 0 315 -3 334 -4 18 -18 44 -32 57 l-26 24 -429 0 -430 0 -60
60 -60 60 52 47 c67 61 92 110 98 198 12 201 -163 349 -358 303z"/>
<path d="M7390 7516 c0 -8 22 -39 50 -69 121 -132 326 -149 454 -36 40 35 86
96 86 113 0 3 -133 6 -295 6 -248 0 -295 -2 -295 -14z"/>
<path d="M4432 4878 c3 -750 -2 -694 74 -778 40 -44 122 -80 183 -80 96 0 192
63 232 152 l24 53 3 608 c2 395 0 607 -7 607 -5 0 -38 -7 -73 -15 -78 -18
-196 -7 -277 25 -56 22 -141 77 -141 92 0 4 -5 8 -10 8 -7 0 -10 -214 -8 -672z"/>
<path d="M7445 5457 c-175 -77 -373 -239 -503 -412 -53 -70 -156 -266 -168
-317 l-6 -28 337 0 c222 0 343 4 357 11 44 24 48 57 48 424 0 190 -3 345 -7
345 -5 -1 -31 -11 -58 -23z"/>
</g>
</svg>
