<?xml version="1.0" standalone="no"?>
<!DOCTYPE svg PUBLIC "-//W3C//DTD SVG 20010904//EN"
 "http://www.w3.org/TR/2001/REC-SVG-20010904/DTD/svg10.dtd">
<svg version="1.0" xmlns="http://www.w3.org/2000/svg"
 width="1920.000000pt" height="1080.000000pt" viewBox="0 0 1920.000000 1080.000000"
 preserveAspectRatio="xMidYMid meet">
<metadata>
Created by potrace 1.16, written by Peter Selinger 2001-2019
</metadata>
<g transform="translate(0.000000,1080.000000) scale(0.100000,-0.100000)"
fill="#000000" stroke="none">
<path d="M4203 8365 c-278 -61 -473 -302 -473 -585 0 -171 59 -311 180 -432
123 -121 259 -178 430 -178 168 0 309 57 424 174 122 122 178 255 177 424 0
172 -55 313 -163 419 -83 82 -104 98 -181 133 -120 57 -265 73 -394 45z"/>
<path d="M7385 8330 c-172 -35 -340 -153 -428 -301 -61 -104 -89 -205 -90
-334 -3 -171 43 -294 160 -432 29 -35 67 -84 83 -110 31 -49 74 -169 65 -183
-2 -4 -18 -10 -34 -13 -36 -7 -106 -68 -128 -111 -43 -82 -8 -202 75 -261 l44
-30 373 0 373 0 44 30 c133 94 122 285 -21 357 -30 15 -56 29 -58 31 -5 6 28
109 48 149 10 20 51 79 89 130 125 164 169 284 170 458 0 172 -58 311 -184
435 -94 93 -184 145 -302 175 -80 21 -203 25 -279 10z m285 -186 c70 -28 145
-80 199 -139 83 -92 121 -194 121 -331 0 -127 -39 -225 -135 -334 -89 -102
-140 -205 -169 -342 -6 -26 -10 -28 -56 -28 l-50 0 0 233 0 233 30 11 c25 9
30 17 30 45 0 39 -15 58 -45 58 -50 -1 -50 -1 -55 -297 l-5 -278 -35 0 -35 0
-5 278 c-5 298 -5 296 -58 297 -49 0 -55 -92 -7 -104 l25 -6 0 -235 0 -235
-48 0 -48 0 -18 78 c-25 108 -69 190 -149 280 -110 122 -147 212 -147 353 0
218 122 391 330 466 57 21 78 23 175 20 74 -3 125 -11 155 -23z"/>
<path d="M7242 8030 c-48 -34 -102 -104 -102 -131 0 -22 31 -41 48 -30 39 24
152 138 152 153 0 16 -27 38 -48 38 -5 0 -28 -14 -50 -30z"/>
<path d="M3593 7075 c-162 -44 -286 -170 -322 -326 -7 -28 -11 -323 -11 -788
0 -739 0 -744 21 -781 57 -102 221 -108 281 -11 23 35 23 43 28 409 l5 374 29
25 c21 18 35 23 55 18 60 -15 56 82 61 -1328 l5 -1292 22 -40 c47 -88 127
-138 218 -138 98 0 174 50 219 143 21 44 21 54 26 812 l5 766 24 26 c14 15 39
30 55 34 27 7 32 15 42 60 30 132 113 236 241 299 74 37 80 38 182 38 64 0
114 -5 127 -12 12 -7 24 -9 28 -6 3 3 6 147 6 319 0 293 1 317 21 369 25 67
59 110 108 134 56 28 86 33 226 40 l130 6 3 190 c1 105 -2 227 -7 273 -24 195
-148 338 -338 387 -82 22 -1410 21 -1490 0z"/>
<path d="M6134 6651 c-101 -46 -158 -136 -159 -251 0 -84 39 -169 96 -208 21
-15 38 -32 39 -39 0 -6 -26 -34 -57 -62 l-58 -51 -405 0 c-302 -1 -409 -4
-421 -13 -37 -29 -39 -47 -39 -449 l0 -394 -57 -57 -56 -57 -41 45 c-176 188
-476 78 -476 -175 0 -146 101 -256 245 -267 93 -8 139 9 210 78 l62 59 56 -59
57 -60 0 -400 0 -400 24 -28 24 -28 404 -3 405 -3 56 -50 c32 -28 57 -56 57
-63 0 -7 -11 -19 -25 -26 -84 -45 -128 -187 -96 -308 16 -57 88 -134 153 -162
77 -33 177 -25 246 19 156 100 177 300 45 429 l-54 52 52 55 52 55 393 0 c226
0 403 4 418 10 54 20 56 34 56 462 l0 393 55 60 54 60 18 -25 c56 -78 135
-120 228 -120 141 0 249 96 270 242 16 105 -45 218 -144 270 -109 57 -248 28
-329 -68 l-36 -44 -53 52 -53 52 0 388 c0 413 -3 443 -48 467 -14 7 -153 11
-419 11 l-399 0 -52 53 c-29 29 -52 57 -52 63 0 6 12 17 26 24 37 20 83 87
101 149 36 124 -26 264 -142 317 -64 30 -170 33 -231 5z"/>
<path d="M7230 6464 c0 -8 26 -42 58 -73 73 -73 132 -96 236 -89 106 7 188 55
234 137 l23 41 -275 0 c-245 0 -276 -2 -276 -16z"/>
<path d="M4462 3998 l3 -635 30 -49 c100 -161 336 -149 421 22 18 37 19 70 22
617 l3 579 -23 -8 c-150 -48 -314 -18 -423 77 l-35 31 2 -634z"/>
</g>
</svg>
